<svg xmlns="http://www.w3.org/2000/svg" version="1.1" xmlns:xlink="http://www.w3.org/1999/xlink" viewBox="0 0 6.3395683212627 1.9133363550669649"><g transform="matrix(1,0,0,1,0.2797394665959825,0.5528595837834824)"><g clip-path="url(#SvgjsClipPath1001)"><g clip-path="url(#a6bd65ad1-b039-4a27-b30c-51d21c7227e5c8b11b11-8df8-46dc-b574-23aea0f010e1)"><path d=" M 1.6714104254804545 0.6200300433852552 C 1.6682893661008604 0.6200099841602458 1.6652114752172444 0.6192990285545774 1.662397799246117 0.6179482356196833 C 1.660371240355623 0.6169625679792672 1.6585157254923242 0.6156585173235922 1.656901826745007 0.614085681519253 C 1.6544036574263208 0.6115875122005665 1.6535196898212472 0.6098195769904193 1.6528278890868418 0.6085320589569427 C 1.6515980211145653 0.6059954562641228 1.651425070930964 0.6049257273507365 1.651181659561451 0.6040417597456629 C 1.6508037313824702 0.6024211524696945 1.6507652980083365 0.6018638685447568 1.6506884312600694 0.6012745568080411 C 1.6505881277250571 0.6003375511058091 1.6505176309492775 0.5993975940954115 1.6504770477023343 0.5984561093715743 C 1.6503809642670002 0.5963486793565802 1.6502656641445994 0.5928640534351306 1.6501631751469095 0.5860229128393435 C 1.6499389804644633 0.5723726594595473 1.6497211913443728 0.5454500808789355 1.6497211913443728 0.49165616821655705 C 1.6497275969067284 0.3647811946390705 1.7525689005259815 0.2619206743327506 1.8794630907905348 0.26190786320803944 L 2.086535705060207 0.26190786320803944 C 2.1090832845519403 0.2619206743327506 2.1284216773035145 0.26514907775997604 2.145012083804534 0.2720286517298967 C 2.161570462493775 0.27884417007626144 2.175111821313526 0.2895991092713239 2.1848418705316917 0.30274972878738277 C 2.191356327447343 0.31149972696514044 2.196262988211737 0.32118493724681657 2.1999718088156324 0.33137618695458565 C 2.20491690295416 0.34500081808495936 2.207812217138894 0.3595414446321848 2.209618585723175 0.37484433309972737 C 2.2120078604818163 0.39525886032704344 2.212449844284353 0.4170698001478816 2.2124626554090643 0.4399440633197504 C 2.2124626554090643 0.4566946088796598 2.2122128384771953 0.47400884392686266 2.2122128384771953 0.49165616821655705 L 2.2122128384771953 0.6209524443644625 L 1.6715065089157886 0.6200300433852552 L 1.6714104254804545 0.6200300433852552 M 2.129408133906278 -0.12638451566408032 C 2.092215900662163 -0.1263465809250198 2.055107414760206 -0.12285767560502656 2.018559877342517 -0.11596266571150943 C 2.0211605356588933 -0.10178075065619796 2.022595381626549 -0.08719528517248326 2.022595381626549 -0.07227673044627705 C 2.022595381626549 0.06048495493601119 1.9145976003110332 0.16848273625152704 1.7818423204911005 0.16848273625152704 C 1.7319720986703584 0.16852175808620912 1.6833352096160965 0.1529820503254795 1.642726317252051 0.1240345390659775 C 1.5724701093357654 0.2221101042926597 1.5309684708337947 0.34220158733555944 1.5309684708337947 0.47205514740840276 C 1.5309684708337947 0.6184734917328429 1.5836350045215866 0.7525355062733192 1.6709364138661396 0.856536216678937 L 2.587879853946416 0.856536216678937 C 2.675200479978036 0.7525355062733192 2.7278413914164052 0.6184734917328429 2.7278413914164052 0.47205514740840276 C 2.7278413914164052 0.1415473465462041 2.459922340330832 -0.12638451566408032 2.129408133906278 -0.12638451566408032" fill="#c2eae9" transform="matrix(1,0,0,1,0,0)" fill-rule="nonzero"></path></g><g clip-path="url(#a6bd65ad1-b039-4a27-b30c-51d21c7227e5c8b11b11-8df8-46dc-b574-23aea0f010e1)"><path d=" M 2.5512016038982166 0.6728951495060709 L 2.5512016038982166 0.5010531281922308 C 2.5512016038982166 0.4895025559661375 2.5418380150332562 0.48013896710117737 2.530287442807163 0.48013896710117737 C 2.51873687058107 0.48013896710117737 2.5093732817161096 0.4895025559661375 2.5093732817161096 0.5010531281922308 L 2.5093732817161096 0.6728951495060709 C 2.5093732817161096 0.6844457217321642 2.51873687058107 0.6938093105971241 2.530287442807163 0.6938093105971241 C 2.5418380150332562 0.6938093105971241 2.5512016038982166 0.6844457217321642 2.5512016038982166 0.6728951495060709" fill="#665846" transform="matrix(1,0,0,1,0,0)" fill-rule="nonzero"></path></g><g clip-path="url(#a6bd65ad1-b039-4a27-b30c-51d21c7227e5c8b11b11-8df8-46dc-b574-23aea0f010e1)"><path d=" M 2.643486540755431 0.4530370327746089 C 2.643486540755431 0.5155553213653228 2.5927993258355215 0.5662233195981656 2.530287442807163 0.5662233195981656 C 2.467769154216449 0.5662233195981656 2.4170819392965397 0.5155553213653228 2.4170819392965397 0.4530370327746089 C 2.4170819392965397 0.39051874418389504 2.4677691542164495 0.33983152926398547 2.530287442807163 0.33983152926398547 C 2.5927993258355215 0.33983152926398547 2.643486540755431 0.39051874418389504 2.643486540755431 0.4530370327746089" fill="#a6c61e" transform="matrix(1,0,0,1,0,0)" fill-rule="nonzero"></path></g><g clip-path="url(#a6bd65ad1-b039-4a27-b30c-51d21c7227e5c8b11b11-8df8-46dc-b574-23aea0f010e1)"><path d=" M 1.5820400194950406 0.8220486689563549 C 1.518951635854678 0.7216671012816545 1.4825039860512803 0.6031129532041 1.4824847693642134 0.4756871012640315 C 1.4825039860512803 0.34509690152029354 1.5207772211260255 0.22382679500396224 1.5867865412005446 0.12188227011449398 C 1.5928198687990962 0.1125731885894613 1.594906906101678 0.10124820900844961 1.5925882923853192 0.09039998006610789 C 1.5902696786689605 0.079551751123766 1.5837354513701192 0.07006941170673525 1.5744238058542253 0.06404004204337249 C 1.5651147243291925 0.05800671444482097 1.5537897447481808 0.05591967714223911 1.542941515805839 0.058238290858597885 C 1.5320932868634973 0.060556904574956716 1.5226109474464664 0.0670911318737979 1.5165815777831038 0.07640277738969192 C 1.4420976987121181 0.191337782736329 1.3988089083129334 0.32863460626638646 1.398828125 0.4756871012640315 C 1.3988089083129334 0.619171698029604 1.4400222965089018 0.7533874460666148 1.5112201220914616 0.8665865440148828 C 1.523518916810847 0.8861429183919454 1.5493426335896965 0.8920263492904335 1.568899008096348 0.8797275547771077 C 1.5884553826029995 0.8674287602637825 1.5943388137735846 0.8416050435469249 1.5820400194663191 0.8220486689106845" fill="#ece8c0" transform="matrix(1,0,0,1,0,0)" fill-rule="nonzero"></path></g><g clip-path="url(#a6bd65ad1-b039-4a27-b30c-51d21c7227e5c8b11b11-8df8-46dc-b574-23aea0f010e1)"><path d=" M 2.0417672297568776 -0.16949395031730818 C 2.0719310228894257 -0.17379848822027535 2.102780211194024 -0.176014812795315 2.13418668342356 -0.176014812795315 C 2.31427906905142 -0.17599559610824816 2.4769419195096773 -0.10313872987558645 2.5950092448482054 0.0148581342770302 C 2.7130061090008217 0.1329382707402697 2.7858693807958392 0.2955883100738153 2.7858821919205505 0.4756871012640313 C 2.7858693807958392 0.6055278502121633 2.74802531839892 0.7261702116176454 2.6827077990588064 0.827730402765777 C 2.670210546903019 0.8471648789526853 2.6793512843844685 0.8417073398257091 2.6987729494466652 0.8542045919814965 C 2.718207425633574 0.866708249699639 2.7405692438169944 0.8924265825573969 2.7530664959727815 0.8729985119328441 C 2.826762490874027 0.7584670570146104 2.869558052971831 0.6219004675930921 2.8695388362847636 0.4756871012640312 C 2.869558052971831 0.27275248027608007 2.7871697099540276 0.08865021261361028 2.6541582076398704 -0.044290828514635006 C 2.521217166511625 -0.1772959252664362 2.3371148988491557 -0.25969067384659517 2.13418668342356 -0.25967145715952833 C 2.098834384782971 -0.25967145715952833 2.064039370067319 -0.2571668822784864 2.0299681838978514 -0.2523242771376483 C 2.0151719708948774 -0.25021658082566434 2.0026241488989815 -0.2403753033607012 1.997051361115861 -0.2265075587965253 C 1.99147857333274 -0.2126398142323494 1.9937274588172227 -0.19685244291661858 2.0029508841545134 -0.18509239495666752 C 2.0121743094918045 -0.17333234699671646 2.026971016924791 -0.16738625347864272 2.0417672298508336 -0.1694939503306921" fill="#ece8c0" transform="matrix(1,0,0,1,0,0)" fill-rule="nonzero"></path></g><g clip-path="url(#a6bd65ad1-b039-4a27-b30c-51d21c7227e5c8b11b11-8df8-46dc-b574-23aea0f010e1)"><path d=" M 1.5236084796872034 0.8237397374182347 C 1.568690827545958 0.7648149693090158 1.629351503053546 0.6671493600730922 1.7424865453782576 0.6671493600730922 L 2.5319272667701984 0.6671493600730922 C 2.6450559035325547 0.6671493600730922 2.6868650090275943 0.7551297590273396 2.7409727942453976 0.8237397374182347 Z" fill="#79c437" transform="matrix(1,0,0,1,0,0)" fill-rule="nonzero"></path></g><g clip-path="url(#a6bd65ad1-b039-4a27-b30c-51d21c7227e5c8b11b11-8df8-46dc-b574-23aea0f010e1)"><path d=" M 2.0865613273096297 0.3037361853901461 L 1.8794630907905348 0.3037361853901461 C 1.8274947633995038 0.3037489965148574 1.7806572914553134 0.324740024354178 1.74657969972349 0.3587855882742234 C 1.7125405413658 0.3928567744436913 1.691555919088835 0.4397006519502374 1.6915431079641237 0.49165616821655705 C 1.6915431079641237 0.533414029212752 1.6916776247735914 0.5589017618257079 1.691831358270126 0.5743968171639187 C 1.6918505749571928 0.5757483908209515 1.6918569805195485 0.5770295032920727 1.6918826027689708 0.5782401545772822 L 2.170378110732733 0.5790472554340886 L 2.170378110732733 0.49165616821655705 C 2.170378110732733 0.4736116990608152 2.1706279276646017 0.45627184176418994 2.1706279276646017 0.4399440633197504 C 2.1706471443516686 0.41487909782226445 2.170006588116108 0.39217778483399696 2.167226574053775 0.373306998134382 C 2.1644913989279315 0.3543721558112109 2.159603954850604 0.3396393623933173 2.152500186198237 0.32942249043612587 C 2.147850702990433 0.32256611664901086 2.1415739183957028 0.3169693904132465 2.134231522360049 0.31313314536582 C 2.1237584279086335 0.307541089429376 2.1085900562505584 0.3037361853901461 2.0865613273096297 0.3037361853901461" fill="#7dd3d0" transform="matrix(1,0,0,1,0,0)" fill-rule="nonzero"></path></g><g clip-path="url(#a6bd65ad1-b039-4a27-b30c-51d21c7227e5c8b11b11-8df8-46dc-b574-23aea0f010e1)"><path d=" M 2.191298677386142 0.5999998498992756 L 2.2122128384771953 0.5999998498992756 Z M 1.691882602768971 0.5782401545772822 L 1.6918377638324817 0.5743968171639187 C 1.691684030335947 0.5589017618257079 1.6915495135264793 0.533414029212752 1.6915495135264793 0.49165616821655705 C 1.691555919088835 0.4397006519502374 1.7125469469281556 0.3928567744436913 1.7465861052858456 0.3587855882742234 C 1.7806572914553134 0.324740024354178 1.8275011689618594 0.3037489965148574 1.8794630907905348 0.3037361853901461 L 2.0865677328719854 0.3037361853901461 C 2.108596461812914 0.3037361853901461 2.123764833470989 0.307541089429376 2.1342379279224044 0.31313314536582 C 2.1415809088716316 0.3169714126093102 2.147857711366579 0.3225703556482821 2.152506591760593 0.3294288959984815 C 2.1596103604129597 0.3396393623933173 2.1644978044902867 0.3543721558112109 2.1672329796161307 0.373306998134382 C 2.170012993678464 0.39217778483399696 2.1706535499140243 0.41487909782226445 2.1706343332269573 0.4399440633197504 C 2.1706343332269573 0.45627184176418994 2.1703845162950888 0.4736116990608152 2.1703845162950888 0.49165616821655705 L 2.1703845162950888 0.5790472554340886 Z M 2.086535705060207 0.26190786320803944 L 1.8794630907905348 0.26190786320803944 C 1.7525689005259815 0.2619206743327506 1.6497275969067284 0.3647811946390705 1.6497211913443728 0.49165616821655705 C 1.6497211913443728 0.5454500808789355 1.6499389804644635 0.5723726594595473 1.6501631751469097 0.5860229128393435 C 1.6502656641445994 0.5928640534351306 1.6503809642670002 0.5963486793565802 1.6504770477023343 0.5984561093715746 C 1.650534697763535 0.599551460534383 1.6505731311376683 0.6002112334570104 1.6506884312600694 0.6012745568080411 C 1.6507652980083365 0.6018638685447568 1.6508037313824704 0.6024211524696945 1.651181659561451 0.6040417597456629 C 1.6514314764933196 0.6049257273507365 1.651604426676921 0.6059954562641228 1.6528342946491974 0.6085320589569427 C 1.6535260953836028 0.6098195769904193 1.6544100629886762 0.6115875122005665 1.6569082323073627 0.614085681519253 C 1.660787141419317 0.6178749046196648 1.665987916712081 0.6200066711707624 1.6714104254804545 0.6200300433852552 L 1.6715065089157886 0.6200300433852552 L 2.2122128384771953 0.6209524443644625 L 2.2122128384771953 0.49165616821655705 C 2.2122128384771953 0.47400884392686266 2.2124626554090643 0.4566946088796599 2.2124626554090643 0.4399440633197504 C 2.2124562498467086 0.4170698001478817 2.2120142660441715 0.39525886032704355 2.209618585723175 0.37484433309972737 C 2.207812217138894 0.3595414446321848 2.2049233085165163 0.34500081808495936 2.199971808815633 0.33137618695458565 C 2.196262988211737 0.32118493724681657 2.191356327447343 0.31149972696514044 2.1848418705316917 0.30274972878738277 C 2.175111821313526 0.28959910927132376 2.1615768680561307 0.27884417007626144 2.145012083804534 0.2720286517298967 C 2.1284216773035145 0.26514907775997604 2.1090832845519403 0.2619206743327506 2.086535705060207 0.26190786320803944" fill="#100f0d" transform="matrix(1,0,0,1,0,0)" fill-rule="nonzero"></path></g><g clip-path="url(#SvgjsClipPath1000c8b11b11-8df8-46dc-b574-23aea0f010e1)"><path d=" M 1.7657764860835545 0.5790844346760471 L 1.5822891524072231 0.5790844346760471 L 1.5822891524072231 0.6209127568581538 L 1.7657764860835545 0.6209127568581538" fill="#100f0d" transform="matrix(1,0,0,1,0,0)" fill-rule="nonzero"></path></g><g clip-path="url(#b6bd65ad1-b039-4a27-b30c-51d21c7227e5c8b11b11-8df8-46dc-b574-23aea0f010e1)"><path d=" M 1.62336870781341 0.6196136818321409 L 1.5814250855089025 0.6196136818321409 L 1.5814250855089025 0.5674852153822199 C 1.5814286152956984 0.5559057300872998 1.5908110101206572 0.5465176020543756 1.6023904910987934 0.5465069986676105 C 1.6139749754477966 0.5465105342956154 1.6233651721854052 0.555900731033224 1.62336870781341 0.5674852153822199 Z" fill="#100f0d" transform="matrix(1,0,0,1,0,0)" fill-rule="nonzero"></path></g><g clip-path="url(#SvgjsClipPath1000c8b11b11-8df8-46dc-b574-23aea0f010e1)"><path d=" M 1.9371195575533435 0.4770130526716419 L 1.7868450646908287 0.4770130526716419 L 1.7868450646908287 0.4045020868061829 L 1.9371195575533435 0.4045020868061829 Z" fill="#c4ebe9" transform="matrix(1,0,0,1,0,0)" fill-rule="nonzero"></path></g><g clip-path="url(#SvgjsClipPath1000c8b11b11-8df8-46dc-b574-23aea0f010e1)"><path d=" M 1.9371225046798817 0.47700994196264596 L 1.9371225046798817 0.4700342845573911 L 1.793817263660266 0.4700342845573911 L 1.793817263660266 0.4114746335024418 L 1.930146847274627 0.4114746335024418 L 1.930146847274627 0.47700994196264596 L 1.9371225046798817 0.47700994196264596 L 1.9371225046798817 0.4700342845573911 L 1.9371225046798817 0.47700994196264596 L 1.9440981620851365 0.47700994196264596 L 1.9440981620851365 0.3975233186919321 L 1.779872354412112 0.3975233186919321 L 1.779872354412112 0.4839855993679008 L 1.9440981620851365 0.4839855993679008 L 1.9440981620851365 0.47700994196264596 Z" fill="#100f0d" transform="matrix(1,0,0,1,0,0)" fill-rule="nonzero"></path></g><g clip-path="url(#c6bd65ad1-b039-4a27-b30c-51d21c7227e5c8b11b11-8df8-46dc-b574-23aea0f010e1)"><path d=" M 2.786881459648025 0.7983160604288349 L 1.5014708561862293 0.7983160604288349 C 1.489294599615724 0.7983177585323884 1.4776179129002298 0.8031572634567896 1.4690104022160306 0.8117695794505124 C 1.4604028915318314 0.820381895444235 1.4555699042780335 0.8320612813343291 1.4555750019083131 0.8442375369561737 C 1.4555750019083131 0.8695861541786407 1.4761222401044252 0.8901362596979727 1.501470856633171 0.8901397967965081 L 2.1674123353620875 0.8901397967965081 C 2.193663796680227 0.8902193949205153 2.2148802837929296 0.9115649360910811 2.2148006856688602 0.9378163974092206 C 2.214721087544791 0.9640678587273601 2.193375546374225 0.9852843458400626 2.1671240850560856 0.9852047477159933 L 2.05892132574519 0.9852047477159933 L 2.05892132574519 0.98564673151853 L 1.893324727728066 0.98564673151853 C 1.8762069267930694 0.9854480396096452 1.8603037148363115 0.9944664138216583 1.851686943321314 1.0092586359665274 C 1.843070171806316 1.0240508581113965 1.8430701718063158 1.0423331780946332 1.851686943321314 1.0571254002395023 C 1.8603037148363115 1.0719176223843712 1.8762069267930694 1.0809359965963845 1.893324727728066 1.0807373046874997 L 2.381921807526619 1.0807373046874997 C 2.407965091947583 1.0804350117752919 2.4289184232149426 1.0592370568711944 2.4289184232149426 1.0331920181030148 C 2.4289184232149426 1.0071469793348353 2.407965091947583 0.9859490244307378 2.381921807526619 0.98564673151853 L 2.347479098740526 0.98564673151853 L 2.347479098740526 0.9852047477159933 L 2.345820058090424 0.9852047477159933 C 2.319568597047577 0.9852843454065634 2.29822305634257 0.9640678583733941 2.2981434582608227 0.937816397331733 C 2.298063860179075 0.911564936290072 2.3192803468941707 0.890219395268915 2.3455318079346457 0.8901397967959901 L 2.786881459648025 0.8901397967959901 C 2.8120263664742415 0.8898427849622497 2.832254219270402 0.8693745895307174 2.832254219270402 0.8442279286126402 C 2.8322542192704017 0.8190812676945627 2.8120263664742415 0.7986130722630305 2.7868814596480247 0.7983160604288349" fill="#61b8e6" transform="matrix(1,0,0,1,0,0)" fill-rule="nonzero"></path></g><g clip-path="url(#c6bd65ad1-b039-4a27-b30c-51d21c7227e5c8b11b11-8df8-46dc-b574-23aea0f010e1)"><path d=" M 1.803973538429719 1.0331824097594815 C 1.803973538429719 1.0594452154174658 1.782681449159685 1.0807373046874997 1.7564378601887674 1.0807373046874997 L 1.7105163836614286 1.0807373046874997 C 1.6844730992404648 1.0804350117752923 1.6635197679731046 1.0592370568711946 1.6635197679731046 1.033192018103015 C 1.6635197679731044 1.0071469793348353 1.6844730992404648 0.9859490244307376 1.7105163836614286 0.98564673151853 L 1.7564378601887674 0.98564673151853 C 1.7826881605851705 0.9856538032593236 1.8039664666889257 1.0069321093630785 1.803973538429719 1.0331824097594815" fill="#61b8e6" transform="matrix(1,0,0,1,0,0)" fill-rule="nonzero"></path></g><g clip-path="url(#SvgjsClipPath1000c8b11b11-8df8-46dc-b574-23aea0f010e1)"><path d=" M 2.5073502939265717 0.648298310353647 L 1.959149456409106 0.648298310353647 L 2.2332434696054833 0.1711928094210513 Z" fill="#fafce8" transform="matrix(1,0,0,1,0,0)" fill-rule="nonzero"></path></g><g clip-path="url(#d6bd65ad1-b039-4a27-b30c-51d21c7227e5c8b11b11-8df8-46dc-b574-23aea0f010e1)"><path d=" M 2.5073491240117383 0.648297790060544 L 2.5073491240117383 0.6273836289694907 L 1.9952820637422457 0.6273836289694907 L 2.23324229969065 0.21316793924423383 L 2.4892085714206624 0.6587132344507594 L 2.5073491240117383 0.648297790060544 L 2.5073491240117383 0.6273836289694907 L 2.5073491240117383 0.648297790060544 L 2.525483271040459 0.6378823456703289 L 2.2513764467193704 0.16077684473773302 C 2.2476423195231723 0.15428799775930735 2.2407288734750264 0.15028547636301248 2.23324229969065 0.1502781280368949 C 2.225754147609777 0.15028583143862467 2.218838955490057 0.1542879500418099 2.215101747099574 0.1607768447377329 L 1.9410141394655522 0.6378823456703289 C 1.9372919995745637 0.6443514416106044 1.9373066529096907 0.6523155292521277 1.941052572839686 0.6587708845119598 C 1.9447809367953286 0.6652392023596418 1.9516823808801393 0.6692212745218513 1.9591482864942726 0.6692119511515975 L 2.5073491240117383 0.6692119511515975 C 2.5148244152807306 0.6692119511515975 2.521710394813007 0.6652469080534773 2.525444837666325 0.6587708845119598 C 2.5291920916443544 0.6523012665327979 2.5292049027690657 0.6443583692118464 2.525483271040459 0.6378823456703289 Z" fill="#100f0d" transform="matrix(1,0,0,1,0,0)" fill-rule="nonzero"></path></g><g clip-path="url(#SvgjsClipPath1000c8b11b11-8df8-46dc-b574-23aea0f010e1)"><path d=" M 2.147464082995448 0.6351973011933212 L 2.233240968499367 0.487350516463581 L 2.3179737473393223 0.6351973011933212 Z" fill="#100f0d" transform="matrix(1,0,0,1,0,0)" fill-rule="nonzero"></path></g><g clip-path="url(#SvgjsClipPath1000c8b11b11-8df8-46dc-b574-23aea0f010e1)"><path d=" M 2.147464082995448 0.6351973011933212 L 2.1517173763995703 0.6376634427002295 L 2.2332153462499447 0.4971958658041474 L 2.3094799716557888 0.6302778293042159 L 2.147464082995448 0.6302778293042159 L 2.147464082995448 0.6351973011933212 L 2.1517173763995703 0.6376634427002295 L 2.147464082995448 0.6351973011933212 L 2.147464082995448 0.6401167730824266 L 2.3264675230228553 0.6401167730824266 L 2.233272996311145 0.4775051671230148 L 2.1389254683754255 0.6401167730824266 L 2.147464082995448 0.6401167730824266 Z" fill="#100f0d" transform="matrix(1,0,0,1,0,0)" fill-rule="nonzero"></path></g><g clip-path="url(#SvgjsClipPath1000c8b11b11-8df8-46dc-b574-23aea0f010e1)"><path d=" M 2.224921938034661 0.18842262246841157 L 2.224921938034661 0.4749113988228864 L 2.1355707487363143 0.4749113988228864 L 2.1355707487363143 0.6310982257396256 L 2.149522063546824 0.6310982257396256 L 2.149522063546824 0.48886271363339623 L 2.238873252845171 0.48886271363339623 L 2.238873252845171 0.18842262246841157 Z" fill="#100f0d" transform="matrix(1,0,0,1,0,0)" fill-rule="nonzero"></path></g><g clip-path="url(#SvgjsClipPath1000c8b11b11-8df8-46dc-b574-23aea0f010e1)"><path d=" M 1.6830532456245697 0.5507493587583345 L 2.0199794199670857 0.5507493587583345 L 2.0199794199670857 0.5367980439478248 L 1.6830532456245697 0.5367980439478248" fill="#100f0d" transform="matrix(1,0,0,1,0,0)" fill-rule="nonzero"></path></g><g clip-path="url(#SvgjsClipPath1000c8b11b11-8df8-46dc-b574-23aea0f010e1)"><path d=" M 1.7580609669374296 0.3490889405281033 L 2.1306469069136034 0.3490889405281033 L 2.1306469069136034 0.3351376257175937 L 1.7580609669374296 0.3351376257175937" fill="#100f0d" transform="matrix(1,0,0,1,0,0)" fill-rule="nonzero"></path></g><g clip-path="url(#e6bd65ad1-b039-4a27-b30c-51d21c7227e5c8b11b11-8df8-46dc-b574-23aea0f010e1)"><path d=" M 1.9826887281511243 -0.07228313600863265 C 1.9826887281511243 0.03865479842810632 1.8927674438031283 0.12857608277610222 1.7818423204911005 0.12857608277610222 C 1.6709107916167172 0.12857608277610222 1.5810023183934325 0.03865479842810632 1.5810023183934325 -0.07228313600863265 C 1.5810023183934325 -0.18320185375830478 1.6709107916167172 -0.2731231381063007 1.7818423204911005 -0.2731231381063007 C 1.8927674438031283 -0.2731231381063007 1.9826887281511243 -0.18320185375830478 1.9826887281511243 -0.07228313600863265" fill="#f8db07" transform="matrix(1,0,0,1,0,0)" fill-rule="nonzero"></path></g><g clip-path="url(#e6bd65ad1-b039-4a27-b30c-51d21c7227e5c8b11b11-8df8-46dc-b574-23aea0f010e1)"><path d=" M 1.9126439037925733 0.5945230940852324 C 1.9126422050220648 0.610509373896571 1.9062900508539087 0.6258402224626889 1.894984842717426 0.6371430280472195 C 1.8836796345809432 0.6484458336317502 1.8683474362752017 0.6547947292401748 1.8523611564639242 0.6547930302891285 C 1.819071448901882 0.6547930302891285 1.79209122026007 0.6277999905226053 1.79209122026007 0.5945230940852324 C 1.7920844223667434 0.5785346632205624 1.7984314757987678 0.5631988440051063 1.8097352025011653 0.5518915131811106 C 1.821038929203563 0.5405841823571147 1.8363727242446135 0.5342322402984074 1.852361156463963 0.5342339411942696 C 1.8856700807131168 0.5342339411942696 1.9126439037925733 0.5612077642737261 1.9126439037925733 0.5945230940852324" fill="#7dd3d0" transform="matrix(1,0,0,1,0,0)" fill-rule="nonzero"></path></g><g clip-path="url(#e6bd65ad1-b039-4a27-b30c-51d21c7227e5c8b11b11-8df8-46dc-b574-23aea0f010e1)"><path d=" M 1.9126439037925733 0.5945230940852324 L 1.8954641855548382 0.5945230940852324 C 1.8954892497481854 0.6059564835726587 1.8909463796392103 0.6169262465718459 1.8828452277142969 0.6249943542108476 C 1.8747706078541675 0.6330943844357748 1.863798359617213 0.6376386797236582 1.852361156463966 0.637619717613749 C 1.8409282509679754 0.6376359763778683 1.8299609818255445 0.6330918335400018 1.8218898963383487 0.6249943542108498 C 1.813789408223196 0.6169252832517416 1.8092447222998134 0.6059567033747602 1.8092645329354493 0.5945230940852324 C 1.8092410200104945 0.5830831092672759 1.8137858804944746 0.572107190493174 1.821889896338344 0.5640326172725527 C 1.8299569488419511 0.555929115518798 1.8409268427253962 0.5513838851542257 1.8523611564639662 0.5514072538696491 C 1.8637994854503546 0.551382602831471 1.8747738340307545 0.5559277680031389 1.8828452277142946 0.5640326172725483 C 1.8909529298469059 0.572104204656547 1.8954965201705452 0.5830826259461526 1.8954641855548384 0.5945230940852324 L 1.9298236220303084 0.5945230940852324 C 1.9298236220303084 0.5517275319874293 1.8951567185617693 0.5170542229565345 1.852361156463966 0.5170542229565345 C 1.8095848110532298 0.5170670340812458 1.774924313147046 0.5517147208627182 1.774911502022335 0.5945230940852324 C 1.774924313147046 0.6372930339336134 1.8095719999285185 0.6719599374021525 1.852361156463966 0.6719727485268636 C 1.8951567185617693 0.6719599374021525 1.9298108109055971 0.6372930339336134 1.9298236220303084 0.5945230940852324 Z" fill="#100f0d" transform="matrix(1,0,0,1,0,0)" fill-rule="nonzero"></path></g></g><g><path d=" M 0.4208984375 0.1899414062499999 Q 0.4365234375 0.2495117187499999 0.4365234375 0.3215332031249999 Q 0.4365234375 0.3935546874999999 0.42431640625 0.4553222656249999 Q 0.412109375 0.5170898437499999 0.39013671875 0.5695800781249999 Q 0.3681640625 0.6220703124999999 0.337646484375 0.6643066406249999 Q 0.30712890625 0.7065429687499999 0.27001953125 0.7363281249999999 Q 0.193359375 0.7978515624999999 0.103515625 0.7978515624999999 Q 0.08935546875 0.7978515624999999 0.085205078125 0.7888183593749999 Q 0.0810546875 0.7797851562499999 0.0810546875 0.7670898437499999 L 0.0810546875 0.7250976562499999 Q 0.0810546875 0.6948242187499999 0.080810546875 0.6516113281249999 Q 0.08056640625 0.6083984374999999 0.080322265625 0.5554199218749999 Q 0.080078125 0.5024414062499999 0.079345703125 0.4455566406249999 Q 0.07861328125 0.3886718749999999 0.077880859375 0.3308105468749999 Q 0.0771484375 0.2729492187499999 0.076171875 0.2202148437499999 Q 0.0732421875 0.11083984374999989 0.0693359375 0.04785156249999989 Q 0.06689453125 0.014648437499999889 0.0986328125 0.010742187499999889 Q 0.1455078125 0.003906249999999889 0.17578125 0.003906249999999889 Q 0.3720703125 0.003906249999999889 0.4208984375 0.1899414062499999 M 0.1298828125 0.7519531249999999 Q 0.18505859375 0.7499999999999999 0.23974609375 0.7045898437499999 Q 0.34130859375 0.6201171874999999 0.37548828125 0.4526367187499999 Q 0.38720703125 0.3950195312499999 0.38720703125 0.3220214843749999 Q 0.38720703125 0.2490234374999999 0.369384765625 0.1950683593749999 Q 0.3515625 0.1411132812499999 0.3232421875 0.10888671874999989 Q 0.27001953125 0.04833984374999989 0.18603515625 0.04833984374999989 Q 0.1494140625 0.04833984374999989 0.12646484375 0.05615234374999989 Q 0.12255859375 0.10644531249999989 0.12255859375 0.1972656249999999 Q 0.12255859375 0.3061523437499999 0.123046875 0.3637695312499999 Q 0.12353515625 0.4213867187499999 0.124267578125 0.4765624999999999 Q 0.125 0.5317382812499999 0.125732421875 0.5822753906249999 Q 0.12646484375 0.6328124999999999 0.12744140625 0.6728515624999999 Q 0.12890625 0.7231445312499999 0.1298828125 0.7519531249999999 M 0.60302734375 0.5283203124999999 L 0.60400390625 0.7016601562499999 Q 0.60400390625 0.7250976562499999 0.60400390625 0.7416992187499999 Q 0.6044921875 0.7490234374999999 0.6044921875 0.7543945312499999 Q 0.7275390625 0.7543945312499999 0.76806640625 0.7504882812499999 Q 0.81005859375 0.7460937499999999 0.81689453125 0.7480468749999999 Q 0.82373046875 0.7499999999999999 0.82861328125 0.7543945312499999 Q 0.83837890625 0.7631835937499999 0.83837890625 0.7736816406249999 Q 0.83837890625 0.7841796874999999 0.8291015625 0.7917480468749999 Q 0.81982421875 0.7993164062499999 0.80322265625 0.7983398437499999 Q 0.72314453125 0.7919921874999999 0.65869140625 0.7961425781249999 Q 0.59423828125 0.8002929687499999 0.58642578125 0.8015136718749999 Q 0.57861328125 0.8027343749999999 0.572509765625 0.8015136718749999 Q 0.56640625 0.8002929687499999 0.5615234375 0.7963867187499999 Q 0.55029296875 0.7880859374999999 0.55126953125 0.7719726562499999 Q 0.55859375 0.6308593749999999 0.55859375 0.4597167968749999 Q 0.55859375 0.2885742187499999 0.558837890625 0.2443847656249999 Q 0.55908203125 0.2001953124999999 0.55908203125 0.1635742187499999 Q 0.55810546875 0.08496093749999989 0.5556640625 0.05249023437499989 Q 0.55322265625 0.02001953124999989 0.556884765625 0.013671874999999889 Q 0.560546875 0.007324218749999889 0.56591796875 0.004394531249999889 Q 0.5732421875 0.000976562499999889 0.58447265625 0.002929687499999889 Q 0.60498046875 0.006347656249999889 0.638671875 0.006347656249999889 Q 0.70361328125 0.006347656249999889 0.727294921875 0.003662109374999889 Q 0.7509765625 0.000976562499999889 0.7578125 0.003173828124999889 Q 0.7646484375 0.005371093749999889 0.76904296875 0.009277343749999889 Q 0.77880859375 0.01708984374999989 0.77880859375 0.02832031249999989 Q 0.77880859375 0.03955078124999989 0.77001953125 0.04687499999999989 Q 0.76123046875 0.05419921874999989 0.74609375 0.05346679687499989 Q 0.73095703125 0.05273437499999989 0.7138671875 0.05151367187499989 Q 0.69677734375 0.05029296874999989 0.67724609375 0.04931640624999989 Q 0.63623046875 0.04785156249999989 0.60595703125 0.05029296874999989 Q 0.60595703125 0.09277343749999989 0.60546875 0.1347656249999999 Q 0.60498046875 0.1845703124999999 0.6044921875 0.2358398437499999 Q 0.60302734375 0.3735351562499999 0.60302734375 0.4389648437499999 Q 0.6640625 0.4389648437499999 0.69287109375 0.4360351562499999 Q 0.72412109375 0.4326171874999999 0.732177734375 0.4389648437499999 Q 0.740234375 0.4453124999999999 0.740234375 0.4560546874999999 Q 0.740234375 0.4829101562499999 0.68994140625 0.4819335937499999 Q 0.6796875 0.4814453124999999 0.67138671875 0.4814453124999999 L 0.6318359375 0.4809570312499999 L 0.60302734375 0.4809570312499999 L 0.60302734375 0.5283203124999999 M 1.271728515625 0.012451171874999889 Q 1.28076171875 0.02246093749999989 1.275146484375 0.04150390624999989 Q 1.26953125 0.06054687499999989 1.261962890625 0.09326171874999989 Q 1.25439453125 0.1259765624999999 1.2451171875 0.1677246093749999 Q 1.23583984375 0.2094726562499999 1.22509765625 0.2585449218749999 Q 1.21435546875 0.3076171874999999 1.202880859375 0.3603515624999999 Q 1.19140625 0.4130859374999999 1.179443359375 0.4680175781249999 Q 1.16748046875 0.5229492187499999 1.1552734375 0.5761718749999999 Q 1.1279296875 0.6953124999999999 1.10791015625 0.7719726562499999 Q 1.1015625 0.7978515624999999 1.07666015625 0.7978515624999999 Q 1.05029296875 0.7978515624999999 1.0419921875 0.7719726562499999 Q 1.03515625 0.7499999999999999 1.012939453125 0.6437988281249999 Q 0.99072265625 0.5375976562499999 0.978759765625 0.4826660156249999 Q 0.966796875 0.4277343749999999 0.953857421875 0.3693847656249999 Q 0.94091796875 0.3110351562499999 0.92724609375 0.2534179687499999 Q 0.89892578125 0.1347656249999999 0.884033203125 0.08520507812499989 Q 0.869140625 0.03564453124999989 0.869140625 0.02514648437499989 Q 0.869140625 0.014648437499999889 0.876220703125 0.007812499999999889 Q 0.88330078125 0.000976562499999889 0.894287109375 0.000488281249999889 Q 0.9052734375 -1.1102230246251565e-16 0.916259765625 0.007812499999999889 Q 0.92724609375 0.015624999999999889 0.931884765625 0.04101562499999989 Q 0.9365234375 0.06640624999999989 0.944580078125 0.10791015624999989 Q 0.95263671875 0.1494140624999999 0.96240234375 0.1975097656249999 Q 0.97216796875 0.2456054687499999 0.983154296875 0.2980957031249999 Q 0.994140625 0.3505859374999999 1.00537109375 0.4030761718749999 Q 1.0166015625 0.4555664062499999 1.02783203125 0.5061035156249999 Q 1.0390625 0.5566406249999999 1.0498046875 0.6010742187499999 Q 1.06640625 0.6728515624999999 1.0791015625 0.7182617187499999 Q 1.0908203125 0.6855468749999999 1.103515625 0.6284179687499999 Q 1.12158203125 0.5458984374999999 1.12890625 0.5102539062499999 Q 1.1376953125 0.4687499999999999 1.150390625 0.3996582031249999 Q 1.1630859375 0.3305664062499999 1.17236328125 0.2834472656249999 Q 1.181640625 0.2363281249999999 1.18994140625 0.1950683593749999 Q 1.1982421875 0.1538085937499999 1.205810546875 0.11694335937499989 Q 1.21337890625 0.08007812499999989 1.217529296875 0.05346679687499989 Q 1.2216796875 0.02685546874999989 1.228759765625 0.014648437499999889 Q 1.23583984375 0.002441406249999889 1.249267578125 0.002441406249999889 Q 1.2626953125 0.002441406249999889 1.271728515625 0.012451171874999889" fill="#100f0d" fill-rule="nonzero"></path></g><g><path d=" M 3.1931753255707345 0.3828124999999999 L 3.2127065755707345 0.3789062499999999 Q 3.2864370443207345 0.3798828124999999 3.3279409505707345 0.4147949218749999 Q 3.3694448568207345 0.4497070312499999 3.3694448568207345 0.5141601562499999 Q 3.3694448568207345 0.5927734374999999 3.3225698568207345 0.6596679687499999 Q 3.2595815755707345 0.7499999999999999 3.1453237630707345 0.7856445312499999 Q 3.0750112630707345 0.8071289062499999 3.0554800130707345 0.7939453124999999 Q 3.0437612630707345 0.7861328124999999 3.0437612630707345 0.7661132812499999 L 3.0486440755707345 0.3745117187499999 L 3.0486440755707345 0.3212890624999999 Q 3.0486440755707345 0.2514648437499999 3.0464468099457345 0.2070312499999999 Q 3.0442495443207345 0.1625976562499999 3.0427847005707345 0.1328124999999999 Q 3.0413198568207345 0.10302734374999989 3.0400991536957345 0.07836914062499989 Q 3.0388784505707345 0.05371093749999989 3.0420522786957345 0.04711914062499989 Q 3.0452261068207345 0.04052734374999989 3.0505972005707345 0.03710937499999989 Q 3.0628042318207345 0.02880859374999989 3.1192007161957345 0.01806640624999989 Q 3.1755972005707345 0.007324218749999889 3.2063589193207345 0.007324218749999889 Q 3.3660268880707345 0.007324218749999889 3.3660268880707345 0.1420898437499999 Q 3.3660268880707345 0.2514648437499999 3.2507925130707345 0.3413085937499999 Q 3.2239370443207345 0.3623046874999999 3.1931753255707345 0.3828124999999999 M 3.0925893880707345 0.7480468749999999 Q 3.1331167318207345 0.7465820312499999 3.1697378255707345 0.7299804687499999 Q 3.2112417318207345 0.7104492187499999 3.2366323568207345 0.6911621093749999 Q 3.2620229818207345 0.6718749999999999 3.2820425130707345 0.6464843749999999 Q 3.3259878255707345 0.5908203124999999 3.3259878255707345 0.5195312499999999 Q 3.3259878255707345 0.4692382812499999 3.2864370443207345 0.4423828124999999 Q 3.2507925130707345 0.4184570312499999 3.1965932943207345 0.4184570312499999 Q 3.1497182943207345 0.4184570312499999 3.1184682943207345 0.4291992187499999 Q 3.0999136068207345 0.4355468749999999 3.0891714193207345 0.4404296874999999 Q 3.0891714193207345 0.4516601562499999 3.0896597005707345 0.4643554687499999 Q 3.0896597005707345 0.4990234374999999 3.0899038411957345 0.5400390624999999 Q 3.0901479818207345 0.5810546874999999 3.0906362630707345 0.6220703124999999 Q 3.0916128255707345 0.7104492187499999 3.0925893880707345 0.7480468749999999 M 3.0891714193207345 0.3950195312499999 Q 3.1560659505707345 0.3813476562499999 3.2312612630707345 0.3149414062499999 Q 3.2849722005707345 0.2675781249999999 3.3084097005707345 0.2094726562499999 Q 3.3201284505707345 0.1791992187499999 3.3201284505707345 0.1489257812499999 Q 3.3201284505707345 0.11865234374999989 3.3106069661957345 0.09936523437499989 Q 3.3010854818207345 0.08007812499999989 3.2849722005707345 0.06787109374999989 Q 3.2542104818207345 0.04589843749999989 3.2004995443207345 0.04589843749999989 Q 3.1394643880707345 0.04589843749999989 3.0916128255707345 0.06787109374999989 Q 3.0916128255707345 0.07421874999999989 3.0911245443207345 0.08447265624999989 Q 3.0906362630707345 0.10205078124999989 3.0901479818207345 0.1376953124999999 Q 3.0891714193207345 0.2089843749999999 3.0891714193207345 0.2954101562499999 L 3.0891714193207345 0.3950195312499999 M 3.7703237630707345 0.2534179687499999 L 3.7698354818207345 0.1762695312499999 Q 3.7698354818207345 0.1577148437499999 3.7695913411957345 0.1364746093749999 Q 3.7693472005707345 0.11523437499999989 3.7691030599457345 0.09057617187499989 Q 3.7688589193207345 0.06591796874999989 3.7683706380707345 0.04272460937499989 Q 3.7678823568207345 0.01953124999999989 3.7766714193207345 0.012207031249999889 Q 3.7854604818207345 0.004882812499999889 3.7952261068207345 0.004882812499999889 Q 3.8049917318207345 0.004882812499999889 3.8130483724457345 0.012207031249999889 Q 3.8211050130707345 0.01953124999999989 3.8206167318207345 0.03515624999999989 Q 3.8128042318207345 0.3061523437499999 3.8128042318207345 0.4599609374999999 Q 3.8128042318207345 0.7075195312499999 3.8162222005707345 0.7656249999999999 Q 3.8171987630707345 0.7812499999999999 3.8091421224457345 0.7890624999999999 Q 3.8010854818207345 0.7968749999999999 3.7915639974457345 0.7968749999999999 Q 3.7820425130707345 0.7968749999999999 3.7744741536957345 0.7893066406249999 Q 3.7669057943207345 0.7817382812499999 3.7673940755707345 0.7661132812499999 Q 3.7693472005707345 0.6054687499999999 3.7703237630707345 0.4902343749999999 Q 3.7268667318207345 0.4863281249999999 3.6516714193207345 0.4863281249999999 Q 3.5735464193207345 0.4863281249999999 3.5359487630707345 0.4907226562499999 Q 3.5364370443207345 0.6381835937499999 3.5393667318207345 0.7631835937499999 Q 3.5398550130707345 0.7792968749999999 3.5310659505707345 0.7875976562499999 Q 3.5222768880707345 0.7958984374999999 3.5122671224457345 0.7958984374999999 Q 3.5022573568207345 0.7958984374999999 3.4944448568207345 0.7883300781249999 Q 3.4866323568207345 0.7807617187499999 3.4876089193207345 0.7539062499999999 Q 3.4885854818207345 0.7270507812499999 3.4895620443207345 0.6767578124999999 Q 3.4905386068207345 0.6264648437499999 3.4915151693207345 0.5698242187499999 Q 3.4924917318207345 0.4746093749999999 3.4924917318207345 0.3749999999999999 Q 3.4924917318207345 0.2753906249999999 3.4922475911957345 0.2346191406249999 Q 3.4920034505707345 0.1938476562499999 3.4915151693207345 0.1601562499999999 Q 3.4900503255707345 0.10742187499999989 3.4856557943207345 0.03808593749999989 Q 3.4846792318207345 0.02246093749999989 3.4934682943207345 0.014892578124999889 Q 3.5022573568207345 0.007324218749999889 3.5129995443207345 0.007324218749999889 Q 3.5237417318207345 0.007324218749999889 3.5325307943207345 0.014892578124999889 Q 3.5413198568207345 0.02246093749999989 3.5403432943207345 0.04516601562499989 Q 3.5393667318207345 0.06787109374999989 3.5383901693207345 0.10009765624999989 Q 3.5374136068207345 0.1323242187499999 3.5369253255707345 0.1711425781249999 Q 3.5364370443207345 0.2099609374999999 3.5364370443207345 0.2573242187499999 Q 3.5359487630707345 0.3017578124999999 3.5359487630707345 0.4443359374999999 Q 3.5681753255707345 0.4492187499999999 3.6526479818207345 0.4492187499999999 Q 3.7337026693207345 0.4492187499999999 3.7703237630707345 0.4443359374999999 Q 3.7703237630707345 0.4257812499999999 3.7703237630707345 0.4086914062499999 L 3.7703237630707345 0.2534179687499999 M 4.136046419320735 0.8076171874999999 Q 4.033995638070735 0.8076171874999999 3.9858999349457345 0.7021484374999999 Q 3.9378042318207345 0.5966796874999999 3.9378042318207345 0.3906249999999999 Q 3.9378042318207345 0.2280273437499999 3.9929800130707345 0.11767578124999989 Q 4.020323763070735 0.06396484374999989 4.059386263070735 0.03198242187499989 Q 4.098448763070735 -1.1102230246251565e-16 4.149474153695735 -1.1102230246251565e-16 Q 4.200499544320735 -1.1102230246251565e-16 4.238585481820735 0.02661132812499989 Q 4.276671419320735 0.05322265624999989 4.301573763070735 0.10351562499999989 Q 4.350401888070735 0.2021484374999999 4.351378450570735 0.3906249999999999 Q 4.352355013070735 0.5888671874999999 4.294737825570735 0.6992187499999999 Q 4.238097200570735 0.8076171874999999 4.136046419320735 0.8076171874999999 M 4.201476106820735 0.05737304687499989 Q 4.178526888070735 0.04296874999999989 4.150694856820735 0.04296874999999989 Q 4.122862825570735 0.04296874999999989 4.100401888070735 0.05737304687499989 Q 4.077940950570735 0.07177734374999989 4.059630403695735 0.09716796874999989 Q 4.041319856820735 0.12255859374999989 4.027403841195735 0.1569824218749999 Q 4.013487825570735 0.1914062499999999 4.003722200570735 0.2309570312499999 Q 3.9846792318207345 0.3120117187499999 3.9846792318207345 0.3928222656249999 Q 3.9846792318207345 0.4736328124999999 3.9907827474457345 0.5283203124999999 Q 3.9968862630707345 0.5830078124999999 4.007628450570735 0.6228027343749999 Q 4.018370638070735 0.6625976562499999 4.033263216195735 0.6892089843749999 Q 4.048155794320735 0.7158203124999999 4.065245638070735 0.7319335937499999 Q 4.096983919320735 0.7607421874999999 4.140929231820735 0.7607421874999999 Q 4.270812044320735 0.7607421874999999 4.298644075570735 0.5219726562499999 Q 4.304991731820735 0.4672851562499999 4.304991731820735 0.4106445312499999 Q 4.304991731820735 0.3540039062499999 4.301573763070735 0.3115234374999999 Q 4.298155794320735 0.2690429687499999 4.290587434945735 0.2297363281249999 Q 4.283019075570735 0.1904296874999999 4.271056184945735 0.1562499999999999 Q 4.259093294320735 0.12207031249999989 4.241759309945735 0.09692382812499989 Q 4.224425325570735 0.07177734374999989 4.201476106820735 0.05737304687499989 M 4.637022981820735 0.8076171874999999 Q 4.534972200570735 0.8076171874999999 4.486876497445735 0.7021484374999999 Q 4.438780794320735 0.5966796874999999 4.438780794320735 0.3906249999999999 Q 4.438780794320735 0.2280273437499999 4.493956575570735 0.11767578124999989 Q 4.521300325570735 0.06396484374999989 4.560362825570735 0.03198242187499989 Q 4.599425325570735 -1.1102230246251565e-16 4.650450716195735 -1.1102230246251565e-16 Q 4.701476106820735 -1.1102230246251565e-16 4.739562044320735 0.02661132812499989 Q 4.777647981820735 0.05322265624999989 4.802550325570735 0.10351562499999989 Q 4.851378450570735 0.2021484374999999 4.852355013070735 0.3906249999999999 Q 4.853331575570735 0.5888671874999999 4.795714388070735 0.6992187499999999 Q 4.739073763070735 0.8076171874999999 4.637022981820735 0.8076171874999999 M 4.702452669320735 0.05737304687499989 Q 4.679503450570735 0.04296874999999989 4.651671419320735 0.04296874999999989 Q 4.623839388070735 0.04296874999999989 4.601378450570735 0.05737304687499989 Q 4.578917513070735 0.07177734374999989 4.560606966195735 0.09716796874999989 Q 4.542296419320735 0.12255859374999989 4.528380403695735 0.1569824218749999 Q 4.514464388070735 0.1914062499999999 4.504698763070735 0.2309570312499999 Q 4.485655794320735 0.3120117187499999 4.485655794320735 0.3928222656249999 Q 4.485655794320735 0.4736328124999999 4.491759309945735 0.5283203124999999 Q 4.497862825570735 0.5830078124999999 4.508605013070735 0.6228027343749999 Q 4.519347200570735 0.6625976562499999 4.534239778695735 0.6892089843749999 Q 4.549132356820735 0.7158203124999999 4.566222200570735 0.7319335937499999 Q 4.597960481820735 0.7607421874999999 4.641905794320735 0.7607421874999999 Q 4.771788606820735 0.7607421874999999 4.799620638070735 0.5219726562499999 Q 4.805968294320735 0.4672851562499999 4.805968294320735 0.4106445312499999 Q 4.805968294320735 0.3540039062499999 4.802550325570735 0.3115234374999999 Q 4.799132356820735 0.2690429687499999 4.791563997445735 0.2297363281249999 Q 4.783995638070735 0.1904296874999999 4.772032747445735 0.1562499999999999 Q 4.760069856820735 0.12207031249999989 4.742735872445735 0.09692382812499989 Q 4.725401888070735 0.07177734374999989 4.702452669320735 0.05737304687499989 M 5.457823763070735 0.1840820312499999 L 5.458312044320735 0.3603515624999999 Q 5.458312044320735 0.5449218749999999 5.466124544320735 0.7661132812499999 Q 5.466612825570735 0.7817382812499999 5.458067903695735 0.7890624999999999 Q 5.449522981820735 0.7963867187499999 5.438780794320735 0.7963867187499999 Q 5.428038606820735 0.7963867187499999 5.419249544320735 0.7880859374999999 Q 5.410460481820735 0.7797851562499999 5.410460481820735 0.7641601562499999 Q 5.417784700570735 0.5444335937499999 5.417784700570735 0.3979492187499999 L 5.417784700570735 0.1450195312499999 Q 5.417784700570735 0.11669921874999989 5.417296419320735 0.09179687499999989 Q 5.406554231820735 0.1333007812499999 5.389464388070735 0.1997070312499999 Q 5.350401888070735 0.3457031249999999 5.334776888070735 0.4016113281249999 Q 5.319151888070735 0.4575195312499999 5.303526888070735 0.5117187499999999 Q 5.271300325570735 0.6235351562499999 5.243468294320735 0.7080078124999999 Q 5.240538606820735 0.7177734374999999 5.231993684945735 0.7226562499999999 Q 5.223448763070735 0.7275390624999999 5.215636263070735 0.7275390624999999 Q 5.200499544320735 0.7275390624999999 5.195128450570735 0.7080078124999999 Q 5.192687044320735 0.7001953124999999 5.183653841195735 0.6701660156249999 Q 5.174620638070735 0.6401367187499999 5.161192903695735 0.5959472656249999 Q 5.147765169320735 0.5517578124999999 5.131407747445735 0.4968261718749999 Q 5.115050325570735 0.4418945312499999 5.097716341195735 0.3842773437499999 Q 5.080382356820735 0.3266601562499999 5.063780794320735 0.2700195312499999 Q 5.047179231820735 0.2133789062499999 5.033507356820735 0.1655273437499999 Q 5.022276888070735 0.1259765624999999 5.014464388070735 0.09716796874999989 L 5.015440950570735 0.2182617187499999 Q 5.015440950570735 0.4394531249999999 5.020079622445735 0.5839843749999999 Q 5.024718294320735 0.7285156249999999 5.025206575570735 0.7519531249999999 Q 5.025694856820735 0.7753906249999999 5.023009309945735 0.7807617187499999 Q 5.020323763070735 0.7861328124999999 5.015929231820735 0.7895507812499999 Q 4.996886263070735 0.8056640624999999 4.978331575570735 0.7885742187499999 Q 4.969542513070735 0.7802734374999999 4.970763216195735 0.7592773437499999 Q 4.971983919320735 0.7382812499999999 4.972960481820735 0.7067871093749999 Q 4.973937044320735 0.6752929687499999 4.974425325570735 0.6401367187499999 Q 4.976378450570735 0.5571289062499999 4.976378450570735 0.4863281249999999 L 4.970519075570735 0.04199218749999989 Q 4.970519075570735 0.02001953124999989 4.980772981820735 0.010986328124999889 Q 4.991026888070735 0.001953124999999889 5.004698763070735 0.001953124999999889 Q 5.030577669320735 0.001953124999999889 5.040343294320735 0.03320312499999989 Q 5.041319856820735 0.03613281249999989 5.045470247445735 0.05053710937499989 Q 5.049620638070735 0.06494140624999989 5.056456575570735 0.08813476562499989 Q 5.063292513070735 0.11132812499999989 5.072325716195735 0.1418457031249999 Q 5.081358919320735 0.1723632812499999 5.091612825570735 0.2075195312499999 Q 5.101866731820735 0.2426757812499999 5.113097200570735 0.2812499999999999 Q 5.152159700570735 0.4155273437499999 5.221007356820735 0.6489257812499999 Q 5.257140169320735 0.5458984374999999 5.354308138070735 0.1816406249999999 Q 5.373351106820735 0.10937499999999989 5.392394075570735 0.03417968749999989 Q 5.401183138070735 0.000488281249999889 5.432921419320735 0.000488281249999889 Q 5.445616731820735 0.000488281249999889 5.453185091195735 0.012939453124999889 Q 5.460753450570735 0.02539062499999989 5.459776888070735 0.04882812499999989 Q 5.457823763070735 0.08154296874999989 5.457823763070735 0.1840820312499999 M 5.682188997445735 0.1555175781249999 Q 5.681944856820735 0.1821289062499999 5.681944856820735 0.3696289062499999 Q 5.681944856820735 0.5571289062499999 5.687804231820735 0.7641601562499999 Q 5.688292513070735 0.7797851562499999 5.678771028695735 0.7880859374999999 Q 5.669249544320735 0.7963867187499999 5.658751497445735 0.7963867187499999 Q 5.648253450570735 0.7963867187499999 5.640196809945735 0.7890624999999999 Q 5.632140169320735 0.7817382812499999 5.633116731820735 0.7563476562499999 Q 5.634093294320735 0.7309570312499999 5.635069856820735 0.6860351562499999 Q 5.636046419320735 0.6411132812499999 5.637022981820735 0.5903320312499999 Q 5.638976106820735 0.4897460937499999 5.638976106820735 0.4025878906249999 Q 5.638976106820735 0.3154296874999999 5.638731966195735 0.2668457031249999 Q 5.638487825570735 0.2182617187499999 5.637511263070735 0.1772460937499999 Q 5.636046419320735 0.08642578124999989 5.632140169320735 0.03222656249999989 Q 5.630675325570735 0.01660156249999989 5.637755403695735 0.009033203124999889 Q 5.644835481820735 0.001464843749999889 5.656065950570735 0.001464843749999889 Q 5.667296419320735 0.001464843749999889 5.677062044320735 0.009033203124999889 Q 5.686827669320735 0.01660156249999989 5.686095247445735 0.03466796874999989 Q 5.685362825570735 0.05273437499999989 5.684630403695735 0.07031249999999989 Q 5.683897981820735 0.08789062499999989 5.683165559945735 0.10839843749999989 Q 5.682433138070735 0.1289062499999999 5.682188997445735 0.1555175781249999" fill="#100f0d" fill-rule="nonzero"></path></g><g></g></g><defs><clipPath id="SvgjsClipPath1001"><path d=" M 1.398828125 -0.2731201171874999 h 1.470714388070734 v 1.3538574218749997 h -1.470714388070734 Z"></path></clipPath><clipPath id="a6bd65ad1-b039-4a27-b30c-51d21c7227e5c8b11b11-8df8-46dc-b574-23aea0f010e1"><path d=" M 1.398828125 1.0807373046874997 L 2.8695388362847636 1.0807373046874997 L 2.8695388362847636 -0.27311673254394503 L 1.398828125 -0.27311673254394503 Z"></path></clipPath><clipPath id="SvgjsClipPath1000c8b11b11-8df8-46dc-b574-23aea0f010e1"><path d=" M 1.398828125 -0.2731201171874999 L 2.8695425130707344 -0.2731201171874999 L 2.8695425130707344 1.0807373046874997 L 1.398828125 1.0807373046874997 Z"></path></clipPath><clipPath id="b6bd65ad1-b039-4a27-b30c-51d21c7227e5c8b11b11-8df8-46dc-b574-23aea0f010e1"><path d=" M 1.398828125 1.0807373046874997 L 2.8695388362847636 1.0807373046874997 L 2.8695388362847636 -0.27311673254394503 L 1.398828125 -0.27311673254394503 Z"></path></clipPath><clipPath id="c6bd65ad1-b039-4a27-b30c-51d21c7227e5c8b11b11-8df8-46dc-b574-23aea0f010e1"><path d=" M 1.398828125 1.0807373046874997 L 2.8695388362847636 1.0807373046874997 L 2.8695388362847636 -0.27311673254394503 L 1.398828125 -0.27311673254394503 Z"></path></clipPath><clipPath id="d6bd65ad1-b039-4a27-b30c-51d21c7227e5c8b11b11-8df8-46dc-b574-23aea0f010e1"><path d=" M 1.398828125 1.0807373046874997 L 2.8695388362847636 1.0807373046874997 L 2.8695388362847636 -0.27311673254394503 L 1.398828125 -0.27311673254394503 Z"></path></clipPath><clipPath id="e6bd65ad1-b039-4a27-b30c-51d21c7227e5c8b11b11-8df8-46dc-b574-23aea0f010e1"><path d=" M 1.398828125 1.0807373046874997 L 2.8695388362847636 1.0807373046874997 L 2.8695388362847636 -0.27311673254394503 L 1.398828125 -0.27311673254394503 Z"></path></clipPath></defs></svg>